<?xml version="1.0" encoding="UTF-8"?>
<svg viewBox="0 0 744.09448819 1052.3622047" xmlns="http://www.w3.org/2000/svg">
 <defs>
  <linearGradient id="g" x1="564.6" x2="615.71" y1="465.12" y2="505.22" gradientUnits="userSpaceOnUse">
   <stop stop-color="#3a474b" offset="0"/>
   <stop offset="1"/>
  </linearGradient>
  <linearGradient id="f" x1="407.14" x2="524.29" y1="408.08" y2="476.65" gradientUnits="userSpaceOnUse">
   <stop stop-color="#7b949a" offset="0"/>
   <stop stop-color="#53676c" offset="1"/>
  </linearGradient>
  <linearGradient id="e" x1="372.14" x2="381.43" y1="452.36" y2="670.93" gradientUnits="userSpaceOnUse">
   <stop stop-color="#960000" offset="0"/>
   <stop stop-color="#5f0000" offset="1"/>
  </linearGradient>
  <linearGradient id="d" x1="426.43" x2="460" y1="313.08" y2="318.08" gradientUnits="userSpaceOnUse">
   <stop stop-color="#2b3639" offset="0"/>
   <stop stop-color="#2b3639" stop-opacity="0" offset="1"/>
  </linearGradient>
  <linearGradient id="c" x1="528.81" x2="465.18" y1="414.45" y2="451.32" gradientUnits="userSpaceOnUse">
   <stop stop-color="#22292c" offset="0"/>
   <stop stop-color="#22292c" stop-opacity="0" offset="1"/>
  </linearGradient>
  <linearGradient id="b" x2="0" y1="479.51" y2="638.08" gradientUnits="userSpaceOnUse">
   <stop stop-color="#262f32" offset="0"/>
   <stop stop-color="#3d4c51" offset="1"/>
  </linearGradient>
  <linearGradient id="a" x1="632.55" x2="457.86" y1="561.31" y2="510.44" gradientUnits="userSpaceOnUse">
   <stop offset="0"/>
   <stop stop-color="#a7dae4" offset="1"/>
  </linearGradient>
 </defs>
 <path d="m231.59 173.46h508.41v555.9h-508.41z" fill="url(#a)"/>
 <path d="m604.09 173.47c6.1221 9.5398 12.774 21.438 14.469 30.312 2.7925 14.62 2.2921 31.737-5.7188 44.281-6.9683 10.912-19.905 20.259-32.844 20.719-19.162 0.68129-50.719-27.125-50.719-27.125s29.318 39.617 51.438 43.562c18.464 3.2934 38.251-7.5 52.844-19.281 15.985-12.905 32.875-52.156 32.875-52.156s4.5723 30.453 13.562 42.156c14.968 19.486 36.402 36.671 60 44.406v-26.625c-13.394-10.353-24.515-24.451-22.156-39.219 1.4704-9.2043 12.087-12.015 22.156-15.594v-45.438h-135.91z" fill="#516a6f"/>
 <path d="m312.22 368.56c-3.6382 0.04728-7.2347 0.34543-10.781 0.9375-22.74 3.7963-54.281 42.875-54.281 42.875s33.037-20.952 51.406-20c19.78 1.0246 39.885 12.173 52.875 27.125 23.803 27.398 37.831 66.643 35.719 102.88-1.9088 32.743-42.875 88.562-42.875 88.562s-4.0734-46.351-17.125-64.281c-10.339-14.203-26.863-30.627-44.312-28.594-17.06 1.9883-35.688 37.156-35.688 37.156s17.457-16.99 28.562-17.156c13.643-0.20419 30.132 7.552 35.719 20 9.9826 22.241-2.822 50.749-15.719 71.438-14.709 23.596-39.969 38.472-64.125 53.281v46.594h177.69c-7.6304-8.8491-16.793-17.831-25-21.312-10.96-4.6488-35.719 0-35.719 0l45.719-57.125 44.281-114.28s-19.736-104.19-55.719-138.59c-18.192-17.394-45.158-29.831-70.625-29.5z" fill="#fff"/>
 <path d="m334.99 448.36c-4.4305 0.62461-8.8554 1.2908-13.289 1.8891-2.2836 6.919-2.6881 14.815-0.63701 21.812 3.8279 8.7033 10.037 16.243 16.525 23.069 4.6995 4.5208 1.3379-3.0009 0.10329-5.4088-3.7277-8.3671-7.5924-17.52-4.6788-26.799 1.0245-5.1082 2.6448-9.9262 4.1516-14.893l-2.1746 0.32949z"/>
 <path d="m457.12 645.91c-6.483 0.57061-13.372 2.2077-18.844 5.4375-9.6335 16.682-19.935 32.99-29.094 49.938 11.185-5.8923 22.179-16.068 35.656-14.531 7.3328 0.36588 11.922 6.9229 12.219 13.812 1.179 5.6562 0.28941 11.631 2.25 17.188 4.7322-8.7745 6.6193-19.617 4.7812-29.469-3.3982-10.102-14.449-16.59-21.219-22.531 7.2571-4.1642 17.301-8.8229 24.812-2.2812 6.8262 3.8362 8.1667 11.957 10.656 18.656 2.078-9.4744 5.034-22.255-4-29.156-4.7482-4.0796-10.871-7.0926-17.219-7.0625z"/>
 <path d="m413.56 505.97c-16.68 5.7365-34.948 11.611-46.969 25.062-9.7098 13.567-6.8553 31.838-3.9375 47.094 3.5506 12.605 16.653 22.522 14.5 36.406-3.82 10.773-19.189 13.817-20.25 26.219-2.2891 11.948 2.1518 26.437 14.5 30.719 3.3049 1.909 6.222 0.80566 8.25-2.4375 13.166-14.021 27.41-28.464 33.688-47.094 5.0583-18.372-12.731-34.116-8.875-52.344 4.2048-10.977 15.92-16.635 25.341-22.52 7.1001-1.5394 2.4563-6.7694 0.27734-11.374-4.9654-10.078-9.9411-20.15-14.9-30.231l-0.95578 0.29409-0.66922 0.20591z"/>
 <path d="m414.16 507.89s-37.204 10.81-46.972 25.759c-7.3039 11.178-5.4074 26.68-3.5355 39.901 2.025 14.302 17.783 26.119 15.657 40.406-1.606 10.793-18.42 14.993-20.203 25.759-4.5893 27.712 16.162 30.81 16.162 30.81s31.584-29.956 36.365-50.003c4.1548-17.419-14.901-36.275-8.5863-53.033 4.3859-11.639 28.789-23.739 28.789-23.739z" fill="#800000"/>
 <path d="m414.29 695.93s16.345-10.976 25.714-11.429c5.2643-0.25413 11.477 1.0803 15 5 5.2138 5.8003 5 22.857 5 22.857s4.5803-16.068 2.1429-23.571c-2.3458-7.2215-9.2915-12.136-15-17.143-2.5816-2.2642-8.5714-5.7143-8.5714-5.7143s13.348-8.3748 20.714-7.8571c5.4213 0.38092 10.519 3.9397 14.286 7.8571 2.2141 2.3026 4.2857 8.5714 4.2857 8.5714s1.752-10.644-0.71428-15c-3.3837-5.9763-10.397-10.142-17.143-11.429-6.6973-1.2773-20 4.2857-20 4.2857z" fill="#53676c"/>
 <path d="m400.81 517.3c-6.1709 0.75203-10.975 5.5842-16.528 8.6394-8.1782 4.4999-15.496 12.934-17.125 22.125-1.9182 10.825 10 31.438 10 31.438s-9.3929-21.994-6.0102-31.302c2.1348-5.8738 10.998-8.3682 10.998-8.3682s-0.96229 18.66 0.0119 28.951c1.2559 13.268 13.808 24.583 12.844 37.875-1.358 18.71-20.083 46.951-28.938 59.375 4.4551 3.7816 9.2188 4.5 9.2188 4.5s31.562-29.953 36.344-50c4.1548-17.419-14.877-36.274-8.5625-53.031 4.3859-11.639 28.781-23.75 28.781-23.75l-10-20.312-2.5625-0.375 2.125-0.5-0.15625-0.28125c-1.9088-0.15478-13.479-5.8316-20.441-4.9832z" fill="#260000"/>
 <path d="m626.75 354.69c-29.374 6.2644-58.755 12.497-88.125 18.781-21.653 45.513-43.844 90.833-65.096 136.5-12.172 47.736-25.328 95.245-36.873 143.13 24.4-27.112 48.119-55.681 78.5-76.375 18.02-10.459 39.32-21.467 60.625-15.844 20.366 7.511 35.888 23.14 51.106 38.065 1.8332 2.8183 10.882 10.544 7.6735 2.8041-8.9328-12.267-18.913-24.019-28.249-36.088 15.028 5.5223 28.647 14.297 39.918 25.558 11.627 10.704 22.517 22.138 33.238 33.692-1.1307-29.101-3.7901-58.073-7.8605-86.83-4.4237-35.459-8.2173-72.632-26.077-104.11-10.744-16.567-24.653-30.891-38.625-44.719 8.2568-11.867 16.548-23.71 24.781-35.594l-4.9375 1.0312z"/>
 <path d="m440 646.65s47.069-56.774 78.571-74.286c16.354-9.0911 35.908-17.806 54.286-14.286 24.414 4.6765 60 44.286 60 44.286l-32.857-41.429s20.854 8.0383 30 14.286c17.803 12.161 47.143 44.286 47.143 44.286s-1.658-37.274-4.2857-55.714c-5.9026-41.421-7.4954-85.192-25.714-122.86-9.7169-20.088-42.857-51.429-42.857-51.429l22.857-32.857-87.143 18.571-64.286 134.29z" fill="url(#g)"/>
 <path d="m409.45 625.45c-2.0351 2.3421-4.1114 4.6585-6.1204 7.0169-7.864-2.331-16.148-6.3212-22.733-11.313-7.7901-6.9807-13.631-14.776-18.648-22.358-3.196-5.2642 3.5197 0.80103 5.6199 2.8384 7.4742 6.7399 15.717 13.984 26.216 17.2 5.5984 2.1206 11.084 3.7255 16.687 5.4788l-1.0226 1.1373z"/>
 <path d="m398.35 629.88s-11.414-4.9633-16.026-8.5924c-8.285-6.5189-18.827-22.03-18.827-22.03s12.316 11.738 20.033 16.12c7.6952 4.3688 24.553 9.2069 24.553 9.2069l-5.7318 6.5562z" fill="#ff0"/>
 <path d="m388.75 617.88c-0.65624 1.8813-1.4042 3.9136-2.2188 6.125 5.1982 2.9814 11.812 5.875 11.812 5.875l4 1.25 5.75-6.5312s-11.052-3.1928-19.344-6.7188z" fill="#808000"/>
 <path d="m390.97 646.55c-2.4874 2.8626-5.0251 5.6939-7.4806 8.5763-9.6117-2.849-19.736-7.7261-27.785-13.828-9.5214-8.5322-16.661-18.06-22.792-27.327-3.9062-6.4342 4.302 0.97905 6.8689 3.4692 9.1353 8.2378 19.21 17.092 32.043 21.022 6.8426 2.5919 13.547 4.5535 20.396 6.6965l-1.2498 1.39z"/>
 <path d="m377.4 651.96s-13.95-6.0664-19.588-10.502c-10.126-7.9677-23.012-26.926-23.012-26.926s15.053 14.347 24.486 19.702c9.4054 5.3397 30.01 11.253 30.01 11.253l-7.0056 8.0133z" fill="#ff0"/>
 <path d="m376.85 437.73c-3.6868 0.88861-7.3688 1.8363-11.059 2.6875-1.9002 9.8433-2.2368 21.076-0.53008 31.031 3.1853 12.382 8.3519 23.108 13.751 32.82 3.9106 6.4316 1.1133-4.2692 0.086-7.6948-3.1019-11.903-6.3179-24.925-3.8933-38.125 0.85255-7.2672 2.2008-14.122 3.4546-21.188l-1.8096 0.46875z"/>
 <path d="m365.8 447.28s-1.0438 15.176 0.29542 22.223c2.4056 12.659 13.294 32.83 13.294 32.83s-5.7974-19.97-6.204-30.81c-0.40534-10.808 3.8405-31.82 3.8405-31.82l-10.34 2.5254z" fill="#ff0"/>
 <path d="m371.47 441.06-4.7812 1.1562-0.875 5.0625s-1.0579 15.172 0.28125 22.219c0.2646 1.3924 0.64965 2.9002 1.0938 4.4375 1.0023-0.57383 2.0295-0.94217 3.1562-0.875 0.93339 0.05565 1.9668 0.33223 3 0.75-0.07187-0.79642-0.12911-1.5576-0.15625-2.2812-0.32335-8.6217 2.2327-23.269 3.3125-29.031l-5.0312-1.4375z" fill="#808000"/>
 <path d="m354.27 437.73c-6.303 0.88861-12.598 1.8363-18.906 2.6875-3.2487 9.8433-3.8242 21.076-0.90625 31.031 5.4457 12.382 14.279 23.108 23.509 32.82 6.6858 6.4316 1.9033-4.2692 0.14695-7.6948-5.3032-11.903-10.801-24.925-6.6562-38.125 1.4576-7.2672 3.7627-14.122 5.9062-21.188l-3.0938 0.46875z"/>
 <path d="m321.71 455.07s-1.2543 10.668 0.35502 15.621c2.8908 8.8979 15.976 23.077 15.976 23.077s-6.967-14.037-7.4555-21.656c-0.4871-7.597 4.6153-22.367 4.6153-22.367l-12.426 1.7751z" fill="#ff0"/>
 <path d="m335.19 449.75-12.406 1.7812-1.0625 3.5312s-0.85763 7.2699-0.25 12.594c0.51474-1.597 1.1245-3.0534 2.4688-3.1562 3.0902-0.23656 4.9014 3.0298 6.625 6.5312-0.00885-7.8279 4.625-21.281 4.625-21.281z" fill="#808000"/>
 <path d="m335.37 447.28s-1.7845 15.176 0.50507 22.223c4.1127 12.659 22.728 32.83 22.728 32.83s-9.9116-19.97-10.607-30.81c-0.69298-10.808 6.566-31.82 6.566-31.82l-17.678 2.5254z" fill="#ff0"/>
 <path d="m354.56 439.72-17.688 2.5-1.5 5.0625s-1.7896 15.172 0.5 22.219c0.83344 2.5653 2.2822 5.4543 4.0312 8.4062 1.6658-2.9097 0.21406-9.7847 3.6562-10.531 1.7534-0.38029 3.1582 0.42928 4.4062 1.7812 0.30148-11.233 6.5938-29.438 6.5938-29.438z" fill="#808000"/>
 <path d="m321.44 442.78c-6.303 0.88861-12.598 1.8363-18.906 2.6875-3.2487 9.8433-3.8242 21.076-0.90625 31.031 5.4457 12.382 14.279 23.108 23.509 32.82 6.6858 6.4316 1.9033-4.2692 0.14695-7.6948-5.3032-11.903-10.801-24.925-6.6562-38.125 1.4576-7.2672 3.7627-14.122 5.9062-21.188l-3.0938 0.46875z"/>
 <path d="m302.54 452.33s-1.7845 15.176 0.50507 22.223c4.1127 12.659 22.728 32.83 22.728 32.83s-9.9116-19.97-10.607-30.81c-0.69298-10.808 6.566-31.82 6.566-31.82l-17.678 2.5254z" fill="#ff0"/>
 <path d="m454.9 197.53c2.5793 13.527 6.331 28.082 1.5592 41.494-7.428 12.342-21.001 19.552-32.971 26.845 7.5356 4.8847 15.976 12.73 25.525 10.024 13.108-5.2364 20.374-18.339 25.416-30.632 6.1724-13.644-3.041-27.878-9.4863-39.436-3.1531-5.1692-6.386-10.325-10.649-14.67l0.60537 6.3752z"/>
 <path d="m231.59 173.47v109.12c11.049-12.295 23.278-22.018 35.562-24.531 19.821-4.0543 46.135 8.6378 54.281 27.156 6.9796 15.866-14.281 50-14.281 50s43.687-39.314 40-64.281c-3.0562-20.695-47.156-41.438-47.156-41.438s39.256-24.793 61.438-25.719c17-0.7094 38.255 2.1789 48.562 15.719 13.281 17.446 2.8438 65.719 2.8438 65.719s20.058-43.981 18.594-67.156c-0.92728-14.672-3.8393-30.356-9.4688-44.594z" fill="#c2e5ec"/>
 <path d="m427.17 266.01s25.866-14.145 31.375-26.732c5.6415-12.889-1.6875-42.176-1.6875-42.176s17.677 24.412 17.729 38.558c0.0383 10.487-12.934 28.68-12.934 28.68s-9.5501 9.7978-15.816 10.25c-6.8302 0.49322-18.666-8.5802-18.666-8.5802z" fill="#646400"/>
 <path d="m594.97 237.16s-36.699 10.203-55.562 11.125c-20.28 0.99172-40.314-7.0542-60.594-6.0625-15.434 0.75475-31.011 3.6408-45.469 9.0938-16.374 6.1754-45.438 26.25-45.438 26.25l22.219 25.281 73.75-11.125 2.2188 4.3438c-0.41975 2.396-1.0032 4.6404-1.8125 6.3125-4.4748 9.2452-15.991 13.417-21.438 22.125-8.8662 14.177-17.125 47.156-17.125 47.156l21.438-42.875s-5.3402 22.425 0 31.438c5.8118 9.8088 18.599 16.389 30 16.438 7.4575 0.03177 18.03-7.0208 24.219-11.688l4.9062 9.5938 57.594-19.219-37.375-24.219s37.999 3.3108 56.562 0c26.848-4.7884 76.781-28.281 76.781-28.281s-53.891 17.324-81.844 19.188c-13.84 0.92277-29.089 2.3163-41.406-4.0625-8.6916-4.5012-19.188-22.219-19.188-22.219s9.4345 0.47022 14.125 0c27.005-2.7072 79.812-16.156 79.812-16.156s-41.578 8.3914-62.625 8.0938c-12.952-0.18315-27.571 1.0841-38.375-6.0625-7.9482-5.2576-15.156-24.25-15.156-24.25s23.047-3.3201 34.344-6.0625c15.421-3.7434 45.438-14.156 45.438-14.156zm-96.406 109.5s10.293 5.8811 15.719 5c0.083-0.01348 0.16656-0.04758 0.25-0.0625l6.6562 13.062c-5.7506 3.7488-14.803 8.5771-19.75 5.5625-6.7587-4.1184-2.875-23.562-2.875-23.562z" fill="#fff"/>
 <path d="m543.06 374.56-3.0625 0.65625-61.719 128.94-3.9688 10.781-27.219 104.44 12.125 5.4688c13.984-15.169 33.308-34.698 50.25-46.688l1.6562-14.719s20.887-60.204 28.938-45.258c10.071 18.698 2.8387-18.705 7.1431-28.466 1.8946-4.2963 7.0085 12.934 8.3779 9.3408 5.8312-15.299 6.0726-48.742 6.0726-48.742l9.0938 10.094 26.25-63.625z" fill="#0d1011"/>
 <path d="m592.84 235.66c-24.706 6.0096-50.255 14.205-75.844 8.9062-18.357-3.6577-37.296-6.2721-55.844-2.5312-21.243 2.7298-40.84 11.836-58.567 23.561-6.0016 3.7214-11.312 9.3066-17.147 13.292 8.1658 9.2428 15.747 16.832 23.902 26.085 24.471-3.6704 48.937-7.3779 73.406-11.062 14.176 27.698 28.358 55.394 42.531 83.094 21.059-7.0007 42.102-14.047 63.156-21.062-11.398-7.4619-22.859-14.827-34.281-22.25 23.35 1.3701 47.482 2.5367 69.688-6.0625 19.556-6.7362 39.141-14.326 57.529-23.666 6.6266-5.7504-7.7028-1.7222-10.967-0.30247-32.946 9.2641-66.586 20.073-101.25 16.312-10.183-1.015-18.374-7.7133-23.812-16-1.7259-2.7438-6.8797-7.5502-0.375-6 24.295-1.0408 47.971-7.6404 71.639-12.716 6.3078-2.1217 13.898-1.691 18.861-6.5961-8.6207-2.0881-17.384 2.2556-26.115 2.8402-22.22 3.5489-45.126 6.1634-67.541 2.6911-9.3359-1.3334-16.025-8.417-19.75-16.625-0.79669-2.6992-5.1215-7.4876-2.8125-8.7812 26.275-3.0461 51.508-11.015 76.375-19.719 5.9408-4.1065 2.0258-3.9064-2.7812-3.4062z"/>
 <path d="m448.16 262.59c-21.985 0.98597-44.57 5.3146-63.594 16.688-19.382 12.996-29.415 35.158-40.375 55-5.1366 4.6368-15.45 5.4315-16.562 13.5-0.0605 9.2485 7.483 16.16 14.062 21.562-3.2708 4.4024-5.1679 12.225-9.2364 14.641-6.8265-2.123-13.661-4.2216-20.482-6.3601-2.974 9.2597-8.6979 20.445-2.5938 29.656 3.5464 7.6239-1.7942 16.161-6.2676 22.266-3.0389 3.8627-7.8738 5.7321-12.326 7.4838 2.1401 5.0946 4.3422 10.163 6.5 15.25 21.126-0.54192 42.855 0.0924 62.468 8.5679 21.835 7.4571 39.753 23.989 49.469 44.838 13.139 27.407 7.5535 59.501-1.0625 87.344-7.0596 21.052-15.492 41.917-26.193 61.469-6.5191 10.13-14.07 19.676-22.026 28.844 4.9922 3.8673 10.02 7.6883 15.031 11.531 6.4971-4.7097 13.046-9.3487 19.562-14.031 3.9553 5.5543 6.824 36.243 12.38 27.768 51.343-78.322 109.25-150.04 138.41-236.64 5.0651-15.045 4.6512-31.521 5.7129-47.281 8.0578 6.4135 18.129 13.972 28.969 10.031 21.949-6.5653 33.115-28.748 49.938-42.219 16.873-12.396 36.87-20.187 55.812-29 18.381-8.0854 36.962-15.732 55.719-22.906-36.534-9.7096-73.388-18.537-110.8-23.65-20.165-3.7454-42.918-10.036-62.142 0.0874-12.353 7.9091-18.208 22.428-23.938 35.312-4.5132-24.048-9.6191-49.622-26.375-68.312-11.701-14.171-31.151-17.8-48.463-20.483-7.1606-0.86524-14.391-1.1879-21.6-0.95404z"/>
 <path d="m379.12 642.31c-1.3908 3.0311-2.8302 5.898-4.2812 8.5 1.5382 0.70556 2.5625 1.1562 2.5625 1.1562l4.875 1.5312 7.0312-8s-4.5059-1.2945-10.188-3.1875z" fill="#808000"/>
 <path d="m321.72 444.75-17.656 2.5312-1.5312 5.0625s-0.34341 3.1589-0.53125 7.2188c2.8692-0.28802 5.6266-0.18132 7.6562 0.65625 3.2654 1.3475 3.8977 6.8581 5.8125 9.8438 1.3499-11.066 6.25-25.312 6.25-25.312z" fill="#808000"/>
 <path d="m334.36 386.67-21.213-6.566s-4.7992 12.623-4.5457 19.193c0.17042 4.4159 4.2905 8.2148 4.0406 12.627-0.41758 7.373-4.1853 14.683-9.0914 20.203-2.6087 2.935-10.102 6.0609-10.102 6.0609l5.1374 12.071s30.069-0.85172 44.36 3.0812c17.64 4.8547 36.005 11.861 48.992 24.749 13.576 13.472 24.11 32.009 26.264 51.013 4.6092 40.667-13.099 81.857-30.346 118.97-6.0418 13.002-25 35-25 35l12.143 9.2857 20-14.286 11.327 15.816s112.52-139.26 139.55-222.55c5.2378-16.139 3.4366-50.786 3.4366-50.786s15.074 13.955 24.256 13.234c26.065-2.0478 39.73-34.395 62.143-47.857 31.149-18.71 99.286-45 99.286-45s-60.945-16.192-92.143-20c-24.286-2.9646-51.801-13.696-73.368-2.1429-14.24 7.6281-25.664 41.112-25.664 41.112s-6.0808-40.715-15.968-58.255c-6.2855-11.15-14.618-22.922-26.429-27.857-32.74-13.68-73.711-11.592-106.43 2.1429-23.615 9.9133-36.512 35.264-48.012 57.968-2.7128 5.3558-16.655 7.5066-17.32 13.512-1.1559 10.437 14.617 21.378 14.617 21.378z" fill="url(#f)"/>
 <path d="m327.84 400.94-17.875 3c1.2354 2.6231 2.8462 5.1973 2.6875 8-0.41758 7.373-4.1877 14.668-9.0938 20.188-2.6087 2.935-10.125 6.0625-10.125 6.0625l5.1562 12.062s1.9568-0.04505 5.0938-0.0625c0.81997-4.5793 1.9671-9.5678 3.4688-12.812 2.7804-6.0075 8.8064-9.9909 12.125-15.719 3.7461-6.4658 8.5625-20.719 8.5625-20.719z" fill="#fff"/>
 <path d="m371.84 406.41c-4.4524 0.0242-8.8914 0.35333-13.281 0.96875-6.0126 0.84293-16.025 2.4912-16.062 8.5625-0.077 12.361 23.576 9.2907 32.5 17.844 3.3165 3.1786 4.7258 7.8831 7.1562 11.781 9.8018 15.721 23.22 29.572 30 46.812 5.623 14.299 7.5936 29.99 8.1875 45.344 0.63369 16.382-2.4687 32.74-5 48.938-2.6677 17.071-5.7236 34.169-10.688 50.719-4.2998 14.335-16.5 26.815-16.438 41.781 5e-3 1.1746 0.0463 2.4048 0.125 3.6562l6.6562-4.75 11.312 15.844s73.113-90.5 115.62-169.22c-0.45935-11.641-2.4206-22.945-7.2812-33.406-13.814-29.732-49.419-60.741-78.589-75.705-21.298-10.926-40.18-9.3006-64.223-9.1696z" fill="url(#b)"/>
 <path d="m476.97 266.69c-10.507 27.315-26.149 75.466-31.095 106.94-0.88702 5.645-25.273 6.055-28.789 10.559-8.458 10.833 12.608 27.321-1.384 29.239-22.724 3.1156 25.324 17.358 38.58 36.076 13.084 18.474 15.805 38.256 25.719 62.875 6.6461 16.504-47.018-77.592-14.281 0.89862 13.003 31.176-19.845 115.78-37.156 144.79-5.5696 9.3325-16.432 21.964-25.25 31.625l3 4.2188s112.53-139.28 139.56-222.56c5.2378-16.139 3.4375-50.781 3.4375-50.781s15.068 13.94 24.25 13.219c26.065-2.0478 39.744-34.382 62.156-47.844 31.149-18.71 99.281-45 99.281-45s-60.958-16.192-92.156-20c-24.286-2.9646-51.777-13.709-73.344-2.1562-14.24 7.6281-25.688 41.125-25.688 41.125s-6.0814-40.71-15.969-58.25c-6.2855-11.15-14.596-22.94-26.406-27.875-7.764-3.2441-15.999-5.5682-24.469-7.0938z" fill="#374448"/>
 <path d="m532.03 310.91c-0.0185 28.544-17.819 94.692-51.035 117.25-18.037 12.247 43.8 22.965 40.254 39.317-7.9111 36.481-24.087 71.011-41.438 104.06-9.5116 18.119-24.537 41.672-39.75 64.25-3.4342 7.6295-7.208 15.09-11.5 22.281-5.5696 9.3325-16.432 21.964-25.25 31.625l3 4.2188s112.53-139.28 139.56-222.56c5.2378-16.139 3.4375-50.781 3.4375-50.781s15.068 13.94 24.25 13.219c26.065-2.0478 39.744-34.382 62.156-47.844 31.149-18.71 99.281-45 99.281-45s-60.958-16.192-92.156-20c-24.286-2.9646-51.777-13.709-73.344-2.1562-14.24 7.6281-25.688 41.125-25.688 41.125s-4.3903-29.405-11.781-49z" fill="url(#c)"/>
 <path d="m550 420.94-0.03125 0.21875c0.03919 0.03464 0.11386 0.11896 0.15625 0.15625l-0.125-0.375zm-0.5625 2.75c-1.5085 7.3295-11.64 55.579-21.594 80.094-7.9328 19.538-20.631 44.224-34.281 68.781 22.309-34.97 42.708-71.625 52.312-101.22 4.327-13.332 3.8592-39.03 3.5625-47.656z" fill="#53676c"/>
 <path d="m338.21 413.79s14.469 10.888 22.857 13.929c7.5819 2.748 16.491 0.45358 23.929 3.5714 19.521 8.1833 36.745 22.312 50.714 38.214 7.3185 8.3314 16.429 28.929 16.429 28.929l-11.071-28.571-24.643-25.357-36.429-22.143-25-3.5714z" fill="#1a1a1a"/>
 <path d="m451.66 264.53c-4.3144 0.02309-8.6357 0.26014-12.938 0.65625 3.9224 2.7646 7.6417 6.2003 8.4375 9.6875 1.7186 7.5307-4.5298 15.284-9.6562 21.062-3.3334 3.7571-12.844 7.8438-12.844 7.8438l-11.094 7.5-7.5 8.5938 1.7812 6.7812 8.2188 11.781-10.344 9.625-15.375 5.375s15.04 0.77234 22.5 0c15.606-1.6157 46.094-9.6562 46.094-9.6562l12.125-21.781s24.116-13.57 24.656-25.344c0.473-10.309-12.255-22.851-21.281-30.406-7.4709-1.1937-15.118-1.7598-22.781-1.7188z" fill="url(#d)"/>
 <path d="m492.12 269.28c-6.1539 4.458-7.424 12.654-7.2188 19.812 0.0553 8.2104-3.0046 16.484-10.054 21.229-8.7126 5.8943-15.713 13.912-19.118 23.942-4.8793 12.62-9.7488 25.574-11.906 38.891 7e-3 7.5682 6.4739-5.8019 7.6964-8.643l11.6-23.2c-1.2801 9.7458-0.12031 20.701 8.2188 27.062 10.064 9.0311 26.166 14.125 38.438 6.4062 6.6588-3.9872 14.3-7.7756 18.783-14.125 2.7401-4.936-5.6778-0.067-7.5638 1.719-5.4691 3.0751-12.595 8.9325-18.938 5.8125-4.0668-4.8656-2.4891-13.117-1.8125-18.375 6.4532 3.4757 14.461 5.7307 21.156 1.5625 7.4841-3.6385 13.897-9.13 20.062-14.719-1.4849-3.7226-1.4335-11.15-4.0668-12.461-3.4788 1.5017-15.852 9.6823-7.7964 2.4653 2.311-3.6408 9.473-6.1859 6.1757-11.16-5.3838-16.108-14.618-31.887-29.094-41.312-4.2684-2.5442-9.0375-4.0178-13.688-5.625l-0.77273 0.63474-0.10227 0.084z"/>
 <path d="m344.29 368.43 12.857 3.2143 14.643 9.6428-1.7857-10s7.8471-1.9914 11.071-4.2857c5.8497-4.1625 13.929-16.429 13.929-16.429l-34.643 7.8571z" fill="#2b3639"/>
 <path d="m346.61 365.76s18.218-10.178 24.107-18.393c3.4766-4.8495 7.8432-11.39 5.7143-16.964-0.90353-2.3657-4.0748-3.7485-6.6071-3.75-3.6251-2e-3 -8.0045 2.039-9.4643 5.3571-1.2792 2.9076 2.1429 9.2857 2.1429 9.2857s-6.292-7.3972-5.1786-11.429c1.1957-4.3291 6.7057-6.6245 11.071-7.6786 4.378-1.0571 9.5068-0.49081 13.393 1.7857 1.5408 0.90262 3.2143 4.2857 3.2143 4.2857s2.2031-4.4125 4.2857-5.3571c2.4418-1.1075 5.8014-1.125 8.0357 0.35714 3.3503 2.2224 5.1786 10.893 5.1786 10.893s-2.7292-7.1848-5.8929-7.5c-2.6469-0.26374-4.4765 3.0498-6.0714 5.1786-3.4028 4.5418-9.6671 10.546-6.9643 15.536 1.0906 2.0136 4.5625 1.6202 6.7857 1.0714 3.9644-0.97852 9.8214-7.3214 9.8214-7.3214s-4.2866 8.094-7.8571 10.714c-2.3826 1.7484-8.3929 2.8571-8.3929 2.8571s8.0799 8.9904 9.2857 14.643c0.60238 2.8238-2.5553 5.9959-1.25 8.5714 1.4926 2.9452 5.449 4.5701 8.75 4.6428 4.0194 0.0885 10.893-5.1786 10.893-5.1786s-6.4993 7.1392-10.893 7.5c-4.3258 0.35523-8.8736-2.3173-11.786-5.5357-1.44-1.5914-2.1428-6.0714-2.1428-6.0714l-8.75 4.8214-0.17858 3.2143-4.4643-0.53571 0.53571-3.0357-2.1428 2.8572-3.75-2.1429s-5.9711 0.72249-8.2143 2.5c-1.6724 1.3252-3.2143 5.5357-3.2143 5.5357s-0.47842-4.2012 0.53572-5.8928c1.2818-2.1381 6.25-4.1072 6.25-4.1072l3.2143-10.714z" fill="#00004e"/>
 <path d="m346.23 368.74-10.354 17.678 25.254-13.89-12.122-5.8084z" fill="#2b3639"/>
 <path d="m390 350.38c-12.989 0.94737-26.714 2.3037-37 11.094-2.9697 2.0645-10.206 7.3655-8.9768 7.7169 5.1296 0.63379 11.279-4.4379 15.352 2e-3 4.077 2.7446 11.509 7.0536 15.312 1.625 2.4707-3.4244-0.38872-9.3109 5.1075-10.161 5.9814-3.3204 12.165-6.3052 17.736-10.307-2.509 0.0335-5.0267-0.11324-7.5312 0.0312z"/>
 <path d="m349.51 366.47s10.213-7.8716 16.162-10.102c7.9826-2.9922 25.254-4.0406 25.254-4.0406l-16.668 9.0914s0.43768 8.1263-2.5254 9.5964c-4.7333 2.3485-14.647-6.0609-14.647-6.0609z"/>
 <path d="m510.19 214.56c-2.9883 13.442-5.3071 28.293-15 38.719-11.708 8.3916-27.027 9.6368-40.906 11.594 4.9852 7.4695 9.6285 18.016 19.469 19.312 14.11 0.38242 25.971-8.7716 35.469-18.062 11.071-10.084 8.2474-26.803 6.9062-39.969-0.84825-5.9953-1.7753-12.009-3.9688-17.688l-1.9688 6.0938z"/>
 <path d="m457.6 266.46s29.353-2.7458 39.396-12.122c10.285-9.6014 15.152-39.396 15.152-39.396s6.5646 29.416 1.0102 42.426c-4.1177 9.6448-23.234 21.213-23.234 21.213s-12.649 5.2149-18.582 3.1489c-6.4671-2.2519-13.743-15.271-13.743-15.271z" fill="#787800"/>
 <path d="m308.6 402.33s2.0229-11.261 6.566-12.627c6.6398-1.9965 18.183 10.102 18.183 10.102l-21.213 13.132z" fill="#2b3639"/>
 <path d="m313.75 388.52s-3.0666 6.3985-1.4286 8.9286c1.3066 2.018 5.4524 3.7442 6.9643 1.875 2.5448-3.146-5.5357-10.804-5.5357-10.804z"/>
 <path d="m377.33 664.74c-2.4874 2.8626-5.0251 5.6939-7.4806 8.5763-9.6117-2.849-19.736-7.7261-27.785-13.828-9.5214-8.5322-16.661-18.06-22.792-27.327-3.9062-6.4342 4.302 0.97905 6.8689 3.4692 9.1353 8.2378 19.21 17.092 32.043 21.022 6.8426 2.5919 13.547 4.5535 20.396 6.6965l-1.2498 1.39z"/>
 <path d="m363.76 670.14s-13.95-6.0664-19.588-10.502c-10.126-7.9677-23.012-26.926-23.012-26.926s15.053 14.347 24.486 19.702c9.4054 5.3397 30.01 11.253 30.01 11.253l-7.0056 8.0133z" fill="#ff0"/>
 <path d="m367.31 661.09c-2.3696 2.4662-5.074 5.01-7.5938 7.2188 2.3633 1.1065 4.0312 1.8438 4.0312 1.8438l4.9062 1.5312 7-8.0312s-3.563-1.0051-8.3438-2.5625z" fill="#808000"/>
 <path d="m318.97 436.06c-8.8342 0.95192-16.76 5.5814-24.531 9.6562 1.3986 4.5098 3.1999 8.0818 8.5311 6.4734 19.327-0.36952 38.899 0.97648 56.779 8.663 22.735 7.756 41.115 25.311 50.62 47.343 11.573 26.55 6.2182 57.174-1.9282 83.97-6.9639 21.109-15.513 41.828-25.97 61.487-6.5282 10.391-14.472 20.228-22.5 29.719 4.9887 3.8481 9.9984 7.6687 15 11.5 7.0552-5.7424 15.762-10.054 21.916-16.551 8.3509-17.879 18.063-35.856 20.803-55.606 0.41665-13.408-2.9671-26.928 0.53125-40.156 1.9005-11.707 4.9451-23.267 10.344-33.875 6.3474-16.615-5.7912-32.83-5.9688-49.312 1.1954-8.4039 1.3328-17.667-4.6875-24.375-8.3239-10.2-18.861-18.577-28.906-27.188-7.5042-6.0625-17.426-9.2846-26.969-6.4375-14.643 3.0563-28.338-6.4881-43.062-5.3125z"/>
 <path d="m322.5 438c-1.5169-0.04606-3.038 0.01286-4.5625 0.1875-7.0837 0.8115-18.814 7.2389-20.906 8.4062l0.15625 0.34375 1.3125-0.15625-1.125 0.59375 1.2188 2.875s30.053-0.83919 44.344 3.0938c17.64 4.8547 36.013 11.863 49 24.75 13.576 13.472 24.127 31.996 26.281 51 4.6092 40.667-13.128 81.853-30.375 118.97-6.0418 13.002-25 35-25 35l12.156 9.3125 19.656-14.062c5.0352-10.014 17.581-35.932 20.531-51.719 1.9798-10.593-1.4601-21.608-0.53125-32.344 0.93064-10.757 3.2281-21.394 6.0625-31.812 1.9711-7.2452 7.038-13.731 7.5938-21.219 0.96527-13.006-6.1588-25.412-7.5938-38.375-0.72267-6.5283 1.8634-13.559-0.5-19.688-3.4366-8.9108-11.624-15.29-18.688-21.719-7.8593-7.1534-15.8-15.455-26-18.438-6.7945-1.9869-14.151 1.392-21.219 1-10.725-0.59475-21.194-5.6776-31.812-6z" fill="url(#e)"/>
 <path d="m555 375.22s4.8468-24.453 13.571-32.143c10.574-9.3208 40.714-11.429 40.714-11.429l-9.2857 10.714s18.595-8.4905 28.571-10c12.956-1.9603 39.286 1.4286 39.286 1.4286l-21.429 3.5714 50.714 2.8571-82.857 17.143 16.429 1.4286s-19.529 20.625-30.714 29.286c-8.2016 6.3506-26.429 16.429-26.429 16.429l16.429-29.286-10.714 8.5714 11.429-27.857-39.286 32.143z"/>
 <path d="m353.55 385.66s-21.046 14.191-18.183 23.739c4.8646 16.218 33.129 8.5405 47.982 16.668 20.772 11.365 41.836 24.828 55.811 43.942 9.7632 13.354 17.425 46.467 17.425 46.467s-6.1107-33.819-15.657-47.477c-13.836-19.795-35.862-32.953-56.821-44.952-13.716-7.8523-39.306-2.143-44.194-17.173-2.5997-7.994 13.637-21.213 13.637-21.213z"/>
 <path d="m500.03 567.99s15.77-20.583 26.769-26.769c18.579-10.449 62.124-15.152 62.124-15.152s-33.565-3.2669-50.003-0.50508c-4.9365 0.82941-14.142 5.0508-14.142 5.0508s10.366-2.5231 15.657-3.0304c11.731-1.1248 35.355 0 35.355 0s-36.046 3.0965-51.013 12.122c-10.728 6.4692-24.749 28.284-24.749 28.284z"/>
 <path d="m600.79 427.58s7.0962 4.6296 10.354 7.3236c7.2031 5.9566 14.617 11.951 20.203 19.445 5.2647 7.0638 12.122 23.486 12.122 23.486s-18.303-15.869-29.294-20.456c-11.215-4.68-35.86-6.566-35.86-6.566s24.954 0.84782 36.365 5.3033c9.3088 3.6347 24.749 16.92 24.749 16.92s-6.11-13.43-10.607-19.193c-5.2395-6.7148-12.479-11.594-18.688-17.425-3.1252-2.9351-9.3439-8.8388-9.3439-8.8388z"/>
 <path d="m372.25 354.62c-2.4572 0.48922-4.7514 1.0711-6.5625 1.75-2.9097 1.0907-6.8377 3.5099-10.094 5.7188 0.01958 0.43539 0.05146 0.85244 0.09375 1.2188 0.05886 0.50985 0.25875 1.2332 0.4375 1.8438l0.96875-0.1875s9.9229 8.3797 14.656 6.0312c2.9631-1.4701 2.5-9.5938 2.5-9.5938l1.0938-0.59375c-0.29101-1.2608-0.71646-2.7703-1.2188-3.6875-0.4119-0.75212-1.1138-1.6466-1.875-2.5z" fill="#f00"/>
 <path d="m355.7 371.01s6.0442 3.7238 9.2176 5.3033c2.9884 1.4874 5.9093 3.4696 9.2176 3.9143 6.2298 0.83748 18.688-2.5254 18.688-2.5254s-12.894 4.2329-19.445 3.5355c-3.3966-0.36155-6.5124-2.2058-9.4702-3.9143-2.9888-1.7265-8.2075-6.3134-8.2075-6.3134z"/>
 <path d="m401.03 350.31s13.413-5.956 14.142-12.122c0.70795-5.9864-10.309-8.6264-10.607-14.647-0.23068-4.6721 3.7252-8.8527 7.0711-12.122 5.2283-5.1083 19.193-10.607 19.193-10.607s-12.9 6.4307-17.678 11.617c-2.8585 3.1032-6.4216 6.9081-6.0609 11.112 0.53269 6.2087 12.546 8.4853 11.617 14.647-1.0649 7.065-17.678 12.122-17.678 12.122z"/>
 <path d="m532.86 375.22s-35.977 18.947-55.714 21.786c-14.904 2.1433-45-3.9286-45-3.9286s30.922 9.3195 46.429 7.1428c19.728-2.7694 54.286-25 54.286-25z"/>
 <path d="m524.52 420.51s4.5811 13.332 7.5761 19.698c3.2896 6.9914 6.1871 14.467 11.364 20.203 4.6947 5.2012 17.173 12.122 17.173 12.122s-16.491-4.3111-23.739-8.5863c-6.9366-4.0918-18.183-15.91-18.183-15.91s11.611 10.77 18.435 14.647c5.1654 2.9352 16.668 6.3135 16.668 6.3135s-8.665-4.1464-11.869-7.5762c-5.6321-6.0284-8.7254-14.091-11.869-21.718-2.5381-6.1577-5.5558-19.193-5.5558-19.193z"/>
 <path d="m530.42 458.01s2.4736 7.1989 4.0908 10.636c1.7762 3.775 3.3407 7.8117 6.1362 10.909 2.5349 2.8084 9.2724 6.5452 9.2724 6.5452s-8.9044-2.3278-12.818-4.6362c-3.7455-2.2094-9.8179-8.5906-9.8179-8.5906s6.2697 5.8151 9.9542 7.9088c2.7891 1.5848 8.9997 3.409 8.9997 3.409s-4.6787-2.2389-6.4089-4.0908c-3.0411-3.2551-4.7113-7.6084-6.4089-11.727-1.3705-3.3249-2.9999-10.363-2.9999-10.363z"/>
 <path d="m552.86 495.22s27.386-2.9186 40 1.4286c23.368 8.0537 60 43.571 60 43.571s-39.342-29.941-62.143-38.571c-11.971-4.5312-37.857-6.4286-37.857-6.4286z"/>
 <path d="m312.59 442.69c-1.5756 0.00418-3.1714 0.1143-4.75 0.375-2.9384 0.48528-6.4615 1.969-9.9688 3.7812l0.625-0.0625-1.125 0.59375 1.2188 2.875s30.053-0.83919 44.344 3.0938c17.64 4.8547 36.013 11.863 49 24.75 13.576 13.472 24.127 31.996 26.281 51 3.1565 27.85-4.1556 55.95-14.625 82.812l7.125-3.8438s2.3715-9.6084 4.875-21.844c0.65199-4.4619 1.5357-8.9081 2.5312-13.312 1.7109-9.7011 3.1143-19.58 3.3125-26.969 0.3278-12.222-2.4861-24.343-4.2812-36.438-1.3851-9.3319-0.48756-19.559-5-27.844-7.0101-12.871-18.696-24.203-32.156-30-10.517-4.5295-22.906-0.83874-34.281-2.1562-11.125-1.2886-22.096-6.8418-33.125-6.8125z" fill="#460000"/>
 <path d="m345 399.86s5.6533-9.0197 10-11.786c3.4355-2.1862 7.7311-2.8375 11.786-3.2143 8.8005-0.81792 26.429 2.1429 26.429 2.1429s-16.76 4.6398-25.357 5.7143c-4.3724 0.54646-9.0318-1.0294-13.214 0.35715-3.7307 1.2368-9.6429 6.7857-9.6429 6.7857z" fill="#c5d0d2"/>
 <path d="m413.75 269.56c-6.4642 1.7113-12.741 3.8523-18.75 6.375-23.615 9.9133-36.5 35.265-48 57.969-2.7128 5.3558-16.679 7.4951-17.344 13.5-1.1559 10.437 14.625 21.375 14.625 21.375-2.7495-3.3101-2.5941-4.2273-4.2812-10-1.2328-4.5015-3.3682-9.6571-1.4375-13.906 2.4732-5.443 14.656-10.375 14.656-10.375s11.309-26.113 20.719-36.438c9.2969-10.201 30.116-22.878 39.812-28.5z" fill="#fff"/>
 <path d="m313.16 380.09s-1.1388 3.0567-2.2812 6.9062l2.9062-4.125 6.0312-0.71875-6.6562-2.0625z" fill="#c5d0d2"/>
 <path d="m400.78 629.36s-6.4701 18.198-10.859 26.769c-4.7585 9.2924-25.467 20.898-16.668 26.517 3.129 1.998 3.8885-6.3334 6.0609-9.3439 4.1003-5.6822 9.8692-10.214 13.132-16.415 4.464-8.4841 8.3338-27.527 8.3338-27.527z" fill="#fff"/>
 <path d="m424.01 526.07s2.4732 7.1664 2.2728 10.859c-0.20629 3.8011-3.5355 10.859-3.5355 10.859z" fill="#fff"/>
 <path d="m320.98 440.46c-7e-3 -1.4532 2.8405-0.79755 4.2932-0.75762 6.654 0.18293 19.445 4.5457 19.445 4.5457s-12.8-1.993-19.193-3.0305c-1.5163-0.24606-4.5384 0.7785-4.5457-0.75761z" fill="#fff"/>
 <path d="m552.14 359.51s8.81-18.418 15.714-25.714c5.765-6.0923 20.714-14.286 20.714-14.286s-19.241 5.7904-25.714 12.857c-6.57 7.1729-10.714 27.143-10.714 27.143z" fill="#c5d0d2"/>
 <path transform="translate(-1.7857 -1.9643)" d="m367.14 363.97a3.3929 3.3929 0 1 1 -6.7857 0 3.3929 3.3929 0 1 1 6.7857 0z" fill="#fff"/>
 <path d="m711.22 334.94 1.625 7.4375s-63.185 25.43-90.688 45c-15.227 10.835-22.208 33.562-40 39.281-9.0325 2.9037-26.87-3.1094-31.188-4.6562 4.0596 3.4796 15.181 12.364 22.594 11.781 26.065-2.0478 39.744-34.382 62.156-47.844 31.149-18.71 99.281-45 99.281-45s-10.002-2.6298-23.781-6z" fill="#53676c"/>
 <path d="m591.97 409.59c-5.9721-0.24026-11.598 8.4025-5.5625 12.25 3.4146 2.8654 9.0223 8e-3 8.3438-4 6.9031 1.1256 11.966 8.5972 12.719 15.281 0.0779 8.046-9.8486 10.939-16.344 10.688-4.5405-6e-3 -12.148-2.0818-10.156-8.1875 3.0924-5.7483-7.5972-2.8102-8.5312-0.0937-1.869 5.4588-0.25278 11.892 5.3438 14.375 11.956 6.4286 28.696 4.1793 37.812-6.0625 6.7492-8.9421-0.4995-20.468-7.3438-26.938-4.4139-4.1306-10.007-7.7408-16.281-7.3125z"/>
 <path d="m594.64 418.52a5.4464 5.4464 0 1 1 -10.893 0 5.4464 5.4464 0 1 1 10.893 0z"/>
 <path d="m467.32 268.61s13.66-1.9447 19.821-4.8214c6.3645-2.9716 12.738-6.8895 16.964-12.5 3.7054-4.9192 6.4286-17.321 6.4286-17.321s-0.46426 13.935-3.9286 19.643c-3.8439 6.3338-10.766 10.476-17.321 13.929-6.2148 3.2732-20.179 6.0714-20.179 6.0714l-0.53571-2.8571z" fill="#fff"/>
 <path d="m460.8 208.26s6.3343 13.973 5.8929 21.339c-0.26749 4.4632-5.0893 12.411-5.0893 12.411l-2.9464-0.17857s5.2769-7.8106 5.8928-12.321c0.97318-7.1266-3.75-21.25-3.75-21.25z" fill="#fff"/>
 <path d="m368.83 574.05s1.1092 4.8781 2.0203 7.1973c1.2114 3.0836 4.5457 8.8388 4.5457 8.8388s-0.93602-6.2225-2.1466-9.0914c-1.0668-2.5281-4.4194-6.9448-4.4194-6.9448z" fill="#fff"/>
 <path d="m369.64 531.29s-5.0218 6.37-6.0714 10.179c-1.2968 4.7055 0 14.643 0 14.643s1.5076-9.4662 2.6786-14.107c0.91651-3.6324 3.3929-10.714 3.3929-10.714z" fill="#fff"/>
 <path d="m375.18 318.26c2.4688-0.46034 7.5 0.71428 7.5 0.71428l2.3214 5.8929 5.1786-5.3571s4.3132-0.41944 6.25 0.35714c1.9596 0.78569 4.8214 4.1071 4.8214 4.1071s-1.1114-4.311-2.6786-5.7143c-2.2016-1.9714-8.3929-2.8571-8.3929-2.8571l1.9643-6.0714-2.6786-12.143-6.6072 10.714 0.35714 6.25s-5.4111-0.16848-7.6786 1.0714c-1.926 1.0532-4.2857 5-4.2857 5s2.4893-1.6959 3.9286-1.9643z" fill="#00004e"/>
 <path d="m588.21 420.58c-1.318-0.61199-2.6501-2.126-2.5-3.5714 0.26964-2.597 3.1265-5.0106 5.7143-5.3571 6.809-0.91185 13.774 4.4011 18.214 9.6428 4.1367 4.8832 8.3156 12.221 6.0714 18.214-2.7134 7.2468-12.309 10.933-20 11.786-7.334 0.81357-16.656-0.87356-21.071-6.7857-1.7598-2.3563-0.20921-8.8202-0.20921-8.8202l4.6429-1.0714s-0.86341 4.9611 0.56635 6.6774c3.4752 4.1715 10.334 5.017 15.714 4.2857 5.0779-0.69018 10.994-3.2387 13.214-7.8572 1.8749-3.8995 0.58034-9.2345-1.7857-12.857-2.9811-4.5643-8.95-10.793-13.929-8.5714-1.2155 0.54229 0.26789 3.0303-0.71428 3.9286-0.97032 0.88742-2.7359 0.91092-3.9286 0.35715z" fill="#ffb380"/>
 <path d="m602.72 415 1.25 6.1875c0.76453 0.85402 1.4168 1.7381 2.0312 2.5938l1.5-4.8125c-1.4436-1.4404-3.0613-2.8055-4.7812-3.9688zm11.312 12.781c0.16211 3.4534-0.2211 6.9207-1.5 10.031-1.291 3.1399-4.0653 5.6274-6.9375 7.4375-3.2097 2.0228-7.1081 2.9542-10.875 3.4062-4.4811 0.53778-9.0672-0.02661-13.5-0.875-1.3233-0.25328-3.0112-0.71032-4.7188-1.25 4.8426 4.2725 12.801 5.4619 19.219 4.75 7.6909-0.85316 17.287-4.5345 20-11.781 1.3845-3.6976 0.29928-7.8899-1.6875-11.719z" fill="#520"/>
 <path d="m611.46 428.91s0.85582 5.4043 0 7.8918c-1.0683 3.105-3.4384 5.7895-6.0609 7.7656-2.1567 1.625-4.8524 2.5683-7.513 3.0304-4.7311 0.82175-14.395-0.56821-14.395-0.56821s9.4357 0.49131 14.016-0.44194c2.6768-0.54542 5.4891-1.2823 7.6393-2.9673 2.3069-1.8078 3.9386-4.4856 5.0508-7.1973 0.96361-2.3495 1.2627-7.513 1.2627-7.513z" fill="#fff"/>
 <path d="m590.31 417.86a1.894 1.894 0 1 1 -3.7881 0 1.894 1.894 0 1 1 3.7881 0z" fill="#fff"/>
 <path d="m577.93 440.34a1.2627 2.5254 0 1 1 -2.5254 0 1.2627 2.5254 0 1 1 2.5254 0z" fill="#fff"/>
 <path d="m583.49 448.8s9.1551 1.4185 13.637 0.63134c3.9956-0.70179 7.9849-2.248 11.238-4.672 2.8306-2.1092 6.6923-8.2075 6.6923-8.2075s-3.5252 6.7899-6.4397 9.0914c-3.4535 2.727-7.881 4.3849-12.248 4.9245-4.3007 0.53141-12.879-1.7678-12.879-1.7678z" fill="#f95"/>
 <path d="m637.69 363.97c-5.78 1.5217-8.6236 11.434-1.7255 13.343 4.1048 1.7381 8.628-2.6382 6.8039-6.271 6.9297-0.94824 13.961 4.7102 16.641 10.88 2.434 7.6694-6.2077 13.346-12.491 15.011-4.3427 1.3258-12.225 1.5723-12.111-4.8491 1.2707-6.4024-8.0873-0.45871-8.1836 2.4123-0.186 5.7669 3.2459 11.444 9.3244 12.176 13.316 2.6396 28.66-4.42 34.372-16.885 3.8301-10.528-6.4799-19.421-14.921-23.6-5.4312-2.6545-11.837-4.4658-17.71-2.2164z"/>
 <path transform="matrix(.95603 -.29326 .29326 .95603 -48.369 145.98)" d="m594.64 418.52a5.4464 5.4464 0 1 1 -10.893 0 5.4464 5.4464 0 1 1 10.893 0z"/>
 <path d="m637.32 375.57c-1.4395-0.19857-3.157-1.2554-3.4374-2.6813-0.5038-2.5619 1.5196-5.7072 3.892-6.7974 6.2422-2.8686 14.459 0.16827 20.241 3.8774 5.3869 3.4554 11.534 9.2449 11.146 15.633-0.46893 7.7239-8.5618 14.062-15.664 17.133-6.773 2.9286-16.18 4.0493-22.135-0.30799-2.3734-1.7366-2.7866-8.3711-2.7866-8.3711l4.1245-2.3859s0.62945 4.9962 2.4996 6.2177c4.5457 2.969 11.351 1.7658 16.28-0.51106 4.6522-2.149 9.5606-6.3203 10.329-11.387 0.64893-4.2779-2.1533-8.9987-5.4777-11.768-4.1885-3.4894-11.722-7.6934-15.83-4.1099-1.003 0.87491 1.1448 2.8185 0.46921 3.9653-0.66741 1.133-2.3485 1.6732-3.6511 1.4935z" fill="#ffb380"/>
 <path d="m649.55 365.98 3.0096 5.5489c0.98137 0.59227 1.8642 1.2462 2.7026 1.884l0.0228-5.0408c-1.8026-0.95377-3.7495-1.7844-5.7349-2.3921zm14.563 8.9018c1.1677 3.254 1.8182 6.6813 1.5077 10.03-0.31341 3.3804-2.2363 6.5722-4.4514 9.145-2.4754 2.8751-5.9293 4.9088-9.398 6.4457-4.1263 1.8282-8.6764 2.6336-13.163 3.1225-1.3394 0.14593-3.0871 0.20396-4.8778 0.18877 5.8826 2.6645 13.84 1.4676 19.767-1.0949 7.1026-3.0711 15.197-9.4046 15.666-17.128 0.23927-3.9411-2.0277-7.6308-5.0499-10.709z" fill="#520"/>
 <path d="m661.99 376.72s2.403 4.9157 2.3143 7.5448c-0.11074 3.2817-1.5894 6.5434-3.5171 9.2016-1.5853 2.1861-3.8859 3.8784-6.294 5.1005-4.2821 2.1731-13.928 3.6781-13.928 3.6781s9.1649-2.2974 13.27-4.5328c2.3991-1.3064 4.8717-2.8356 6.4332-5.0771 1.6753-2.4049 2.45-5.4435 2.718-8.3621 0.23222-2.5288-0.99608-7.553-0.99608-7.553z" fill="#fff"/>
 <path transform="matrix(.95603 -.29326 .29326 .95603 -48.369 145.98)" d="m590.31 417.86a1.894 1.894 0 1 1 -3.7881 0 1.894 1.894 0 1 1 3.7881 0z" fill="#fff"/>
 <path transform="matrix(.95603 -.29326 .29326 .95603 -48.369 145.98)" d="m577.93 440.34a1.2627 2.5254 0 1 1 -2.5254 0 1.2627 2.5254 0 1 1 2.5254 0z" fill="#fff"/>
 <path d="m641.08 403.93s9.1686-1.3286 13.223-3.3956c3.6142-1.8427 6.9746-4.4909 9.3738-7.7622 2.0876-2.8465 3.9911-9.8092 3.9911-9.8092s-1.379 7.5252-3.4905 10.58c-2.5019 3.6198-6.2486 6.5032-10.265 8.2998-3.9558 1.7693-12.832 2.087-12.832 2.087z" fill="#f95"/>
 <path d="m481.84 310.41s-11.819 9.5421-16.162 15.657c-4.4056 6.2024-9.5964 20.708-9.5964 20.708s8.036-13.165 12.501-19.445c4.1516-5.84 13.258-16.92 13.258-16.92z" fill="#fff"/>
 <path d="m452.86 246.65c-6.8141 0.34646-13.502 2.4706-19.865 4.935-10.08 3.9045-28.528 15.422-28.528 15.422l30.179-11.964-18.214 9.6429s16.953-7.616 25.893-10c8.3213-2.219 16.931-3.5828 25.536-3.9286 4.1146-0.16531 12.321 0.89286 12.321 0.89286l-14.821-3.2143c-0.3607-0.37461-8.2965-1.9994-12.5-1.7857z" fill="#fff"/>
 <path d="m284.29 304.15a11.786 11.786 0 1 1 -23.571 0 11.786 11.786 0 1 1 23.571 0z" fill="#fff"/>
 <path transform="matrix(.54545 0 0 .54545 217.79 65.035)" d="m284.29 304.15a11.786 11.786 0 1 1 -23.571 0 11.786 11.786 0 1 1 23.571 0z" fill="#fff"/>
 <path transform="matrix(.54545 0 0 .54545 107.79 405.03)" d="m284.29 304.15a11.786 11.786 0 1 1 -23.571 0 11.786 11.786 0 1 1 23.571 0z" fill="#fff"/>
 <path transform="matrix(.54545 0 0 .54545 121.36 248.61)" d="m284.29 304.15a11.786 11.786 0 1 1 -23.571 0 11.786 11.786 0 1 1 23.571 0z" fill="#fff"/>
 <path transform="translate(290.92 361.63)" d="m284.29 304.15a11.786 11.786 0 1 1 -23.571 0 11.786 11.786 0 1 1 23.571 0z" fill="#fff"/>
 <path transform="matrix(.44289 0 0 .44289 421.02 482.09)" d="m284.29 304.15a11.786 11.786 0 1 1 -23.571 0 11.786 11.786 0 1 1 23.571 0z" fill="#fff"/>
 <path transform="matrix(.44289 0 0 .44289 389.7 576.03)" d="m284.29 304.15a11.786 11.786 0 1 1 -23.571 0 11.786 11.786 0 1 1 23.571 0z" fill="#fff"/>
</svg>
